<svg width="20" height="21" viewBox="0 0 20 21" fill="none" xmlns="http://www.w3.org/2000/svg">
<path d="M19.1479 0.866113C18.7658 0.476675 18.2813 0.203331 17.7504 0.0776877C17.2195 -0.0479556 16.6639 -0.0207656 16.1479 0.156114L1.99785 4.88611C1.42717 5.07291 0.92854 5.43226 0.570805 5.91455C0.21307 6.39684 0.013868 6.97828 0.0006979 7.57862C-0.0124722 8.17895 0.161039 8.76857 0.49728 9.26608C0.83352 9.7636 1.31591 10.1445 1.87785 10.3561L7.11785 12.3561C7.23717 12.4017 7.34581 12.4715 7.437 12.5609C7.52818 12.6504 7.59996 12.7577 7.64785 12.8761L9.64785 18.1261C9.85144 18.6801 10.2209 19.1579 10.7058 19.4943C11.1908 19.8307 11.7676 20.0094 12.3579 20.0061H12.4279C13.0289 19.9952 13.6114 19.7964 14.0938 19.4378C14.5762 19.0791 14.9343 18.5785 15.1179 18.0061L19.8479 3.83611C20.0199 3.32505 20.0455 2.77605 19.9218 2.2512C19.7981 1.72634 19.53 1.24656 19.1479 0.866113ZM17.9979 3.20611L13.7912 5.5726L13.2179 17.3861C13.1623 17.5656 13.0509 17.7226 12.8997 17.8341C12.7486 17.9457 12.5657 18.006 12.3779 18.0061C13.2851 16 13.0551 15.6036 12.8997 15.5C12.7443 15.3964 12.4469 18.1797 12.3779 18.0061L13.2179 18.1261C13.0729 17.7446 18.7877 1.78943 18.5 1.5C18.2123 1.21057 -12 7.10424 7.83785 10.4961L2.58785 8.49611C2.41074 8.43122 2.2585 8.31231 2.15264 8.1562C2.04677 8.00009 1.99262 7.81466 1.99785 7.62611C1.998 7.43826 2.05827 7.25538 2.16983 7.10424C2.28138 6.95309 2.43838 6.84162 2.61785 6.78611L17 3C17.1628 2.93365 17.1392 1.97199 17.3119 2.00494C17.4846 2.03789 18.3731 1.37836 18.5 1.5C18.0409 3.51997 11.4676 6.61498 11.5079 6.78611C11.5481 6.95724 18.0572 3.04064 17.9979 3.20611Z" fill="#24D0DB"/>
</svg>
