<svg width="18" height="21" viewBox="0 0 18 21" fill="none" xmlns="http://www.w3.org/2000/svg">
<path d="M17 6.13282L11 0.872819C10.45 0.380864 9.7379 0.108887 8.99997 0.108887C8.26204 0.108887 7.54999 0.380864 6.99997 0.872819L0.999973 6.13282C0.682341 6.41689 0.428873 6.76538 0.256445 7.15506C0.0840165 7.54475 -0.00341463 7.9667 -2.72762e-05 8.39282V17.1328C-2.72762e-05 17.9285 0.316043 18.6915 0.878652 19.2541C1.44126 19.8167 2.20432 20.1328 2.99997 20.1328H15C15.7956 20.1328 16.5587 19.8167 17.1213 19.2541C17.6839 18.6915 18 17.9285 18 17.1328V8.38282C18.0019 7.95838 17.9138 7.53836 17.7414 7.1505C17.5691 6.76264 17.3163 6.41577 17 6.13282ZM11 18.1328H6.99997V13.1328C6.99997 12.8676 7.10533 12.6132 7.29287 12.4257C7.4804 12.2382 7.73476 12.1328 7.99997 12.1328H9.99997C10.2652 12.1328 10.5195 12.2382 10.7071 12.4257C10.8946 12.6132 11 12.8676 11 13.1328V18.1328ZM16 17.1328C16 17.398 15.8946 17.6524 15.7071 17.8399C15.5195 18.0275 15.2652 18.1328 15 18.1328H13V13.1328C13 12.3372 12.6839 11.5741 12.1213 11.0115C11.5587 10.4489 10.7956 10.1328 9.99997 10.1328H7.99997C7.20432 10.1328 6.44126 10.4489 5.87865 11.0115C5.31604 11.5741 4.99997 12.3372 4.99997 13.1328V18.1328H2.99997C2.73476 18.1328 2.4804 18.0275 2.29287 17.8399C2.10533 17.6524 1.99997 17.398 1.99997 17.1328V8.38282C2.00015 8.24083 2.03057 8.10051 2.08919 7.9712C2.14781 7.84188 2.2333 7.72653 2.33997 7.63282L8.33997 2.38282C8.52246 2.2225 8.75706 2.13408 8.99997 2.13408C9.24288 2.13408 9.47748 2.2225 9.65997 2.38282L15.66 7.63282C15.7666 7.72653 15.8521 7.84188 15.9108 7.9712C15.9694 8.10051 15.9998 8.24083 16 8.38282V17.1328Z" fill="#7B8D9E"/>
</svg>
