<svg width="20" height="21" viewBox="0 0 20 21" fill="none" xmlns="http://www.w3.org/2000/svg">
<path d="M13.71 10.8428C14.6904 10.0715 15.406 9.01374 15.7572 7.81676C16.1085 6.61978 16.0779 5.34308 15.6698 4.16428C15.2617 2.98549 14.4963 1.96321 13.4801 1.23967C12.4639 0.516134 11.2474 0.127319 10 0.127319C8.75255 0.127319 7.53611 0.516134 6.51993 1.23967C5.50374 1.96321 4.73834 2.98549 4.33021 4.16428C3.92208 5.34308 3.89151 6.61978 4.24276 7.81676C4.59401 9.01374 5.3096 10.0715 6.29 10.8428C4.61007 11.5159 3.14428 12.6322 2.04889 14.0727C0.953495 15.5133 0.26956 17.2241 0.0699967 19.0228C0.0555513 19.1541 0.0671132 19.287 0.104022 19.4139C0.140931 19.5407 0.202464 19.6591 0.285108 19.7621C0.452016 19.9703 0.69478 20.1036 0.959997 20.1328C1.22521 20.162 1.49116 20.0846 1.69932 19.9177C1.90749 19.7508 2.04082 19.508 2.07 19.2428C2.28958 17.288 3.22168 15.4826 4.68822 14.1716C6.15475 12.8606 8.0529 12.1358 10.02 12.1358C11.9871 12.1358 13.8852 12.8606 15.3518 14.1716C16.8183 15.4826 17.7504 17.288 17.97 19.2428C17.9972 19.4885 18.1144 19.7155 18.2991 19.8798C18.4838 20.0442 18.7228 20.1343 18.97 20.1328H19.08C19.3421 20.1027 19.5817 19.9701 19.7466 19.7641C19.9114 19.558 19.9881 19.2952 19.96 19.0328C19.7595 17.229 19.0719 15.5138 17.9708 14.071C16.8698 12.6282 15.3969 11.5123 13.71 10.8428ZM10 10.1328C9.20887 10.1328 8.43551 9.89822 7.77772 9.45869C7.11992 9.01917 6.60723 8.39445 6.30448 7.66355C6.00173 6.93264 5.92251 6.12838 6.07686 5.35245C6.2312 4.57653 6.61216 3.8638 7.17157 3.30439C7.73098 2.74498 8.44371 2.36402 9.21964 2.20967C9.99556 2.05533 10.7998 2.13455 11.5307 2.4373C12.2616 2.74005 12.8863 3.25274 13.3259 3.91053C13.7654 4.56833 14 5.34169 14 6.13282C14 7.19368 13.5786 8.2111 12.8284 8.96124C12.0783 9.71139 11.0609 10.1328 10 10.1328Z" fill="#7B8D9E"/>
</svg>
